<svg width="243" height="45" viewBox="0 0 243 45" fill="none" xmlns="http://www.w3.org/2000/svg">
    <path d="M13.4 35.2C11.2933 35.2 9.41333 34.72 7.76 33.76C6.10667 32.7733 4.8 31.44 3.84 29.76C2.90667 28.08 2.44 26.1867 2.44 24.08C2.44 21.9467 2.89333 20.04 3.8 18.36C4.73333 16.68 5.98667 15.36 7.56 14.4C9.16 13.4133 11 12.92 13.08 12.92C14.68 12.92 16.16 13.24 17.52 13.88C18.88 14.4933 20.08 15.4267 21.12 16.68C21.44 17.0533 21.5467 17.44 21.44 17.84C21.36 18.2133 21.12 18.5467 20.72 18.84C20.4 19.0533 20.04 19.1333 19.64 19.08C19.2667 19 18.92 18.7867 18.6 18.44C17.1333 16.7867 15.2933 15.96 13.08 15.96C11.6133 15.96 10.32 16.3067 9.2 17C8.10667 17.6933 7.25333 18.6533 6.64 19.88C6.02667 21.08 5.72 22.48 5.72 24.08C5.72 25.6267 6.04 27.0133 6.68 28.24C7.34667 29.44 8.25333 30.4 9.4 31.12C10.5733 31.8133 11.9067 32.16 13.4 32.16C14.4133 32.16 15.32 32.0267 16.12 31.76C16.9467 31.4933 17.68 31.08 18.32 30.52C18.6933 30.2267 19.0667 30.0667 19.44 30.04C19.8133 30.0133 20.16 30.12 20.48 30.36C20.8267 30.68 21.0267 31.04 21.08 31.44C21.1333 31.84 21 32.2 20.68 32.52C18.7333 34.3067 16.3067 35.2 13.4 35.2ZM34.3472 35C33.2272 35 32.2405 34.7067 31.3872 34.12C30.5339 33.5067 29.8672 32.6667 29.3872 31.6C28.9072 30.5333 28.6672 29.3067 28.6672 27.92V5.44C28.6672 4.93333 28.8139 4.53333 29.1072 4.24C29.4272 3.92 29.8405 3.76 30.3472 3.76C30.8272 3.76 31.2139 3.92 31.5072 4.24C31.8272 4.53333 31.9872 4.93333 31.9872 5.44V27.92C31.9872 29.0133 32.2005 29.92 32.6272 30.64C33.0805 31.3333 33.6539 31.68 34.3472 31.68H35.3472C35.7739 31.68 36.1205 31.84 36.3872 32.16C36.6539 32.4533 36.7872 32.84 36.7872 33.32C36.7872 33.8267 36.5872 34.24 36.1872 34.56C35.8139 34.8533 35.3205 35 34.7072 35H34.3472Z" fill="#0A0908"/>
    <path d="M56 34.5C59.1826 34.5 62.2348 33.2357 64.4853 30.9853C66.7357 28.7348 68 25.6826 68 22.5C68 19.3174 66.7357 16.2652 64.4853 14.0147C62.2348 11.7643 59.1826 10.5 56 10.5C52.8174 10.5 49.7652 11.7643 47.5147 14.0147C45.2643 16.2652 44 19.3174 44 22.5C44 25.6826 45.2643 28.7348 47.5147 30.9853C49.7652 33.2357 52.8174 34.5 56 34.5ZM56 7.5C57.9698 7.5 59.9204 7.88799 61.7403 8.64181C63.5601 9.39563 65.2137 10.5005 66.6066 11.8934C67.9995 13.2863 69.1044 14.9399 69.8582 16.7597C70.612 18.5796 71 20.5302 71 22.5C71 26.4782 69.4196 30.2936 66.6066 33.1066C63.7936 35.9196 59.9782 37.5 56 37.5C47.705 37.5 41 30.75 41 22.5C41 18.5218 42.5804 14.7064 45.3934 11.8934C48.2064 9.08035 52.0218 7.5 56 7.5ZM56.75 15V22.875L63.5 26.88L62.375 28.725L54.5 24V15H56.75Z" fill="#0A0908"/>
    <path d="M87.4 35.2C85.2933 35.2 83.4133 34.72 81.76 33.76C80.1067 32.7733 78.8 31.44 77.84 29.76C76.9067 28.08 76.44 26.1867 76.44 24.08C76.44 21.9467 76.8933 20.04 77.8 18.36C78.7333 16.68 79.9867 15.36 81.56 14.4C83.16 13.4133 85 12.92 87.08 12.92C88.68 12.92 90.16 13.24 91.52 13.88C92.88 14.4933 94.08 15.4267 95.12 16.68C95.44 17.0533 95.5467 17.44 95.44 17.84C95.36 18.2133 95.12 18.5467 94.72 18.84C94.4 19.0533 94.04 19.1333 93.64 19.08C93.2667 19 92.92 18.7867 92.6 18.44C91.1333 16.7867 89.2933 15.96 87.08 15.96C85.6133 15.96 84.32 16.3067 83.2 17C82.1067 17.6933 81.2533 18.6533 80.64 19.88C80.0267 21.08 79.72 22.48 79.72 24.08C79.72 25.6267 80.04 27.0133 80.68 28.24C81.3467 29.44 82.2533 30.4 83.4 31.12C84.5733 31.8133 85.9067 32.16 87.4 32.16C88.4133 32.16 89.32 32.0267 90.12 31.76C90.9467 31.4933 91.68 31.08 92.32 30.52C92.6933 30.2267 93.0667 30.0667 93.44 30.04C93.8133 30.0133 94.16 30.12 94.48 30.36C94.8267 30.68 95.0267 31.04 95.08 31.44C95.1333 31.84 95 32.2 94.68 32.52C92.7333 34.3067 90.3067 35.2 87.4 35.2ZM106.387 27.48L104.347 25.24L117.587 13.28C117.934 12.96 118.294 12.8133 118.667 12.84C119.067 12.8667 119.427 13.0533 119.747 13.4C120.067 13.7467 120.214 14.12 120.187 14.52C120.161 14.8933 119.974 15.24 119.627 15.56L106.387 27.48ZM105.107 35C104.627 35 104.227 34.8533 103.907 34.56C103.614 34.24 103.467 33.84 103.467 33.36V5.4C103.467 4.92 103.614 4.53333 103.907 4.24C104.227 3.92 104.627 3.76 105.107 3.76C105.614 3.76 106.014 3.92 106.307 4.24C106.627 4.53333 106.787 4.92 106.787 5.4V33.36C106.787 33.84 106.627 34.24 106.307 34.56C106.014 34.8533 105.614 35 105.107 35ZM119.747 34.8C119.374 35.12 118.974 35.2533 118.547 35.2C118.147 35.1733 117.801 34.9733 117.507 34.6L108.827 23.92L111.187 21.76L119.987 32.6C120.281 32.9467 120.414 33.32 120.387 33.72C120.361 34.12 120.147 34.48 119.747 34.8ZM130.039 44.36C129.505 44.36 129.079 44.2 128.759 43.88C128.465 43.5867 128.319 43.1733 128.319 42.64V23.96C128.345 21.88 128.839 20.0133 129.799 18.36C130.785 16.68 132.105 15.36 133.759 14.4C135.412 13.4133 137.279 12.92 139.359 12.92C141.492 12.92 143.385 13.4133 145.039 14.4C146.719 15.36 148.039 16.68 148.999 18.36C149.985 20.04 150.479 21.9467 150.479 24.08C150.479 26.1867 150.012 28.08 149.079 29.76C148.172 31.44 146.919 32.7733 145.319 33.76C143.719 34.72 141.905 35.2 139.879 35.2C138.145 35.2 136.572 34.84 135.159 34.12C133.745 33.3733 132.599 32.4 131.719 31.2V42.64C131.719 43.1733 131.559 43.5867 131.239 43.88C130.919 44.2 130.519 44.36 130.039 44.36ZM139.359 32.16C140.852 32.16 142.185 31.8133 143.359 31.12C144.559 30.4 145.492 29.4267 146.159 28.2C146.852 26.9733 147.199 25.6 147.199 24.08C147.199 22.5333 146.852 21.16 146.159 19.96C145.492 18.7333 144.559 17.76 143.359 17.04C142.185 16.32 140.852 15.96 139.359 15.96C137.919 15.96 136.599 16.32 135.399 17.04C134.225 17.76 133.305 18.7333 132.639 19.96C131.972 21.16 131.639 22.5333 131.639 24.08C131.639 25.6 131.972 26.9733 132.639 28.2C133.305 29.4267 134.225 30.4 135.399 31.12C136.572 31.8133 137.892 32.16 139.359 32.16ZM168.521 35.2C166.361 35.2 164.441 34.72 162.761 33.76C161.108 32.8 159.801 31.48 158.841 29.8C157.881 28.12 157.401 26.2133 157.401 24.08C157.401 21.92 157.881 20 158.841 18.32C159.801 16.64 161.108 15.32 162.761 14.36C164.441 13.4 166.361 12.92 168.521 12.92C170.654 12.92 172.548 13.4 174.201 14.36C175.854 15.32 177.161 16.64 178.121 18.32C179.081 20 179.574 21.92 179.601 24.08C179.601 26.2133 179.121 28.12 178.161 29.8C177.201 31.48 175.881 32.8 174.201 33.76C172.548 34.72 170.654 35.2 168.521 35.2ZM168.521 32.16C170.014 32.16 171.348 31.8133 172.521 31.12C173.694 30.4 174.614 29.44 175.281 28.24C175.948 27.0133 176.281 25.6267 176.281 24.08C176.281 22.5333 175.948 21.1467 175.281 19.92C174.614 18.6933 173.694 17.7333 172.521 17.04C171.348 16.32 170.014 15.96 168.521 15.96C167.028 15.96 165.681 16.32 164.481 17.04C163.308 17.7333 162.374 18.6933 161.681 19.92C161.014 21.1467 160.681 22.5333 160.681 24.08C160.681 25.6267 161.014 27.0133 161.681 28.24C162.374 29.44 163.308 30.4 164.481 31.12C165.681 31.8133 167.028 32.16 168.521 32.16ZM189.872 35C189.366 35 188.952 34.8533 188.632 34.56C188.312 34.24 188.152 33.8133 188.152 33.28V14.84C188.152 14.3067 188.312 13.8933 188.632 13.6C188.952 13.28 189.366 13.12 189.872 13.12C190.379 13.12 190.779 13.28 191.072 13.6C191.392 13.8933 191.552 14.3067 191.552 14.84V33.28C191.552 33.8133 191.392 34.24 191.072 34.56C190.779 34.8533 190.379 35 189.872 35ZM189.832 9.16C189.192 9.16 188.646 8.93333 188.192 8.48C187.739 8 187.512 7.44 187.512 6.8C187.512 6.13333 187.739 5.58667 188.192 5.16C188.672 4.73333 189.219 4.52 189.832 4.52C190.446 4.52 190.979 4.73333 191.432 5.16C191.912 5.58667 192.152 6.13333 192.152 6.8C192.152 7.44 191.926 8 191.472 8.48C191.019 8.93333 190.472 9.16 189.832 9.16ZM219.991 35C219.484 35 219.071 34.84 218.751 34.52C218.431 34.2 218.271 33.8 218.271 33.32V23.12C218.271 21.4933 217.964 20.1733 217.351 19.16C216.764 18.12 215.951 17.3467 214.911 16.84C213.871 16.3067 212.684 16.04 211.351 16.04C210.098 16.04 208.964 16.2933 207.951 16.8C206.964 17.28 206.178 17.9467 205.591 18.8C205.004 19.6267 204.711 20.5867 204.711 21.68H202.391C202.444 20 202.884 18.5067 203.711 17.2C204.564 15.8667 205.698 14.8133 207.111 14.04C208.524 13.2667 210.098 12.88 211.831 12.88C213.698 12.88 215.364 13.28 216.831 14.08C218.324 14.8533 219.498 16 220.351 17.52C221.231 19.04 221.671 20.9067 221.671 23.12V33.32C221.671 33.8 221.511 34.2 221.191 34.52C220.871 34.84 220.471 35 219.991 35ZM203.031 35C202.498 35 202.071 34.8533 201.751 34.56C201.458 34.24 201.311 33.8267 201.311 33.32V14.84C201.311 14.3067 201.458 13.8933 201.751 13.6C202.071 13.28 202.498 13.12 203.031 13.12C203.538 13.12 203.938 13.28 204.231 13.6C204.551 13.8933 204.711 14.3067 204.711 14.84V33.32C204.711 33.8267 204.551 34.24 204.231 34.56C203.938 34.8533 203.538 35 203.031 35ZM238.819 35C237.433 35 236.193 34.6667 235.099 34C234.006 33.3333 233.139 32.4133 232.499 31.24C231.886 30.0667 231.579 28.7467 231.579 27.28V7.84C231.579 7.36 231.726 6.96 232.019 6.64C232.339 6.32 232.753 6.16 233.259 6.16C233.739 6.16 234.139 6.32 234.459 6.64C234.779 6.96 234.939 7.36 234.939 7.84V27.28C234.939 28.5333 235.299 29.5733 236.019 30.4C236.766 31.2267 237.699 31.64 238.819 31.64H240.019C240.446 31.64 240.806 31.8 241.099 32.12C241.393 32.44 241.539 32.84 241.539 33.32C241.539 33.8267 241.353 34.24 240.979 34.56C240.633 34.8533 240.179 35 239.619 35H238.819ZM229.219 16.84C228.766 16.84 228.393 16.7067 228.099 16.44C227.806 16.1467 227.659 15.8 227.659 15.4C227.659 14.9733 227.806 14.6267 228.099 14.36C228.393 14.0667 228.766 13.92 229.219 13.92H239.099C239.553 13.92 239.926 14.0667 240.219 14.36C240.513 14.6267 240.659 14.9733 240.659 15.4C240.659 15.8 240.513 16.1467 240.219 16.44C239.926 16.7067 239.553 16.84 239.099 16.84H229.219Z" fill="#0A0908"/>
</svg>
